<?xml version="1.0" encoding="UTF-8"?>
<svg version="1.1" xmlns="http://www.w3.org/2000/svg" width="100" height="76">
<path d="M0 0 C0.66 0 1.32 0 2 0 C2.20762047 12.01891812 1.57394857 23.99832537 1 36 C4.63 35.01 8.26 34.02 12 33 C11.67 32.34 11.34 31.68 11 31 C10.84621148 29.04225931 10.75028537 27.07982648 10.68359375 25.1171875 C10.64169922 23.95058594 10.59980469 22.78398437 10.55664062 21.58203125 C10.51732422 20.35871094 10.47800781 19.13539062 10.4375 17.875 C10.39431641 16.64394531 10.35113281 15.41289062 10.30664062 14.14453125 C10.20031296 11.09647147 10.09828219 8.0483281 10 5 C12.19478547 6.74475175 12.9380445 7.67844713 13.4765625 10.47338867 C13.52554688 11.4451001 13.57453125 12.41681152 13.625 13.41796875 C13.69017822 14.50078125 13.75535645 15.58359375 13.82250977 16.69921875 C13.88108154 17.85035156 13.93965332 19.00148438 14 20.1875 C14.51829393 36.50605104 14.51829393 36.50605104 19 52 C19.13415472 54.6723621 19.04318541 57.32250488 19 60 C18.34 60 17.68 60 17 60 C16.32667007 56.91808296 15.66251141 53.8342592 15 50.75 C14.80921875 49.87730469 14.6184375 49.00460938 14.421875 48.10546875 C14.24140625 47.26113281 14.0609375 46.41679688 13.875 45.546875 C13.62363281 44.38430176 13.62363281 44.38430176 13.3671875 43.19824219 C13 41 13 41 13 37 C12.46375 37.309375 11.9275 37.61875 11.375 37.9375 C8.60254233 39.17781001 5.9921525 39.54502887 3 40 C3.05329468 40.96824707 3.05329468 40.96824707 3.10766602 41.95605469 C3.26549415 44.88707336 3.4140923 47.81848987 3.5625 50.75 C3.64661133 52.27367188 3.64661133 52.27367188 3.73242188 53.828125 C3.78076172 54.8078125 3.82910156 55.7875 3.87890625 56.796875 C3.9260376 57.69760742 3.97316895 58.59833984 4.02172852 59.52636719 C4.00110175 61.87457408 3.67823071 63.76206702 3 66 C2.34 66 1.68 66 1 66 C0.505 53.13 0.505 53.13 0 40 C-0.66 40 -1.32 40 -2 40 C-2 35.05 -2 30.1 -2 25 C-2.86625 27.041875 -2.86625 27.041875 -3.75 29.125 C-5.49882891 33.07860249 -7.48271204 36.49377748 -10 40 C-9.01 40.33 -8.02 40.66 -7 41 C-7.50603992 43.16874252 -7.99983813 44.99967627 -9 47 C-9.66 47 -10.32 47 -11 47 C-11.66 46.01 -12.32 45.02 -13 44 C-13.66 44.99 -14.32 45.98 -15 47 C-15.99 47 -16.98 47 -18 47 C-18.33 46.34 -18.66 45.68 -19 45 C-19.66 45.99 -20.32 46.98 -21 48 C-22.32 48 -23.64 48 -25 48 C-26.77409808 49.92022703 -26.77409808 49.92022703 -28 52 C-29.32 51.34 -30.64 50.68 -32 50 C-32.66 50.99 -33.32 51.98 -34 53 C-35.32 52.67 -36.64 52.34 -38 52 C-38 51.34 -38 50.68 -38 50 C-38.7425 50.53625 -39.485 51.0725 -40.25 51.625 C-41.61125 52.305625 -41.61125 52.305625 -43 53 C-45.14376674 52.28541109 -46.41224417 51.58775583 -48 50 C-48.7611339 42.20149689 -48.11018647 36.67905301 -44 30 C-43.236875 30.185625 -42.47375 30.37125 -41.6875 30.5625 C-38.91032625 31.22819173 -38.91032625 31.22819173 -36 30 C-36 35.94 -36 41.88 -36 48 C-33.22420239 45.22420239 -33.13938613 42.69693063 -32.375 38.875 C-32.11460938 37.59367187 -31.85421875 36.31234375 -31.5859375 34.9921875 C-31.39257812 34.00476562 -31.19921875 33.01734375 -31 32 C-30.34 32.33 -29.68 32.66 -29 33 C-29.33 37.95 -29.66 42.9 -30 48 C-29.34 48 -28.68 48 -28 48 C-27.01 42.39 -26.02 36.78 -25 31 C-24.34 31 -23.68 31 -23 31 C-22.67 34.96 -22.34 38.92 -22 43 C-20.68 38.05 -19.36 33.1 -18 28 C-17.34 28 -16.68 28 -16 28 C-16 32.62 -16 37.24 -16 42 C-15.66226563 40.71222656 -15.32453125 39.42445312 -14.9765625 38.09765625 C-14.5264624 36.41915795 -14.07591862 34.74077859 -13.625 33.0625 C-13.40328125 32.21236328 -13.1815625 31.36222656 -12.953125 30.48632812 C-12.62441406 29.27299805 -12.62441406 29.27299805 -12.2890625 28.03515625 C-11.99056396 26.91185913 -11.99056396 26.91185913 -11.68603516 25.76586914 C-11 24 -11 24 -9 23 C-8.505 26.96 -8.505 26.96 -8 31 C-4.32637187 20.70690987 -1.11956279 10.92538863 0 0 Z M-43 34 C-45.43425238 38.96993194 -46.34615998 42.34605369 -46 48 C-44.68 48.33 -43.36 48.66 -42 49 C-39.86413322 45.79619983 -39.76867825 44.98060033 -39.875 41.3125 C-39.89304687 40.50425781 -39.91109375 39.69601563 -39.9296875 38.86328125 C-39.95289063 38.24839844 -39.97609375 37.63351563 -40 37 C-40.66 37 -41.32 37 -42 37 C-42.33 36.01 -42.66 35.02 -43 34 Z " fill="#000000" transform="translate(80,9)"/>
<path d="M0 0 C1 1 1 1 1.1328125 2.7578125 C1.0674889 22.55086255 1.0674889 22.55086255 -0.98046875 29.16796875 C-2.43251561 34.62566211 -2.6666983 40.00015502 -2.9375 45.625 C-3.01806641 46.74390625 -3.09863281 47.8628125 -3.18164062 49.015625 C-3.63843868 55.57530627 -3.63843868 55.57530627 -0.51953125 61.1171875 C0.31191406 61.73851562 1.14335938 62.35984375 2 63 C2.25 65.5 2.25 65.5 1 68 C-5.30268562 73.81657423 -11.72459141 75.521751 -20.1796875 75.38671875 C-23 75 -23 75 -26.125 72.75 C-29.01475932 68.51168632 -30.34424262 66.19064049 -29.6875 61 C-29.53861328 59.7315625 -29.53861328 59.7315625 -29.38671875 58.4375 C-29.03882936 56.24474262 -28.58001025 54.1415763 -28 52 C-29.98 52.99 -31.96 53.98 -34 55 C-34 53.68 -34 52.36 -34 51 C-31 48.75 -31 48.75 -28 47 C-28.495 46.21625 -28.99 45.4325 -29.5 44.625 C-32.3914037 37.63744107 -31.6003304 31.83777959 -28.875 24.875 C-24.21606044 14.72655785 -12.70901917 -1.41211324 0 0 Z M-11.625 7.6875 C-12.58664063 8.37199219 -13.54828125 9.05648438 -14.5390625 9.76171875 C-17.15976022 12.14530572 -17.74859932 13.77523672 -19 17 C-20.31606201 17.70014499 -21.65059287 18.36649971 -23 19 C-27.52164727 24.97333403 -28.54617802 30.9996327 -28.46875 38.3359375 C-27.94369567 41.31999628 -26.99506062 42.76086281 -25 45 C-21.84027493 44.70822359 -21.00144457 44.00164228 -18.859375 41.56640625 C-18.16328125 40.57511719 -17.4671875 39.58382812 -16.75 38.5625 C-16.04359375 37.57378906 -15.3371875 36.58507813 -14.609375 35.56640625 C-12.82290888 33.22247961 -12.82290888 33.22247961 -13 31 C-12.34 31 -11.68 31 -11 31 C-11 30.34 -11 29.68 -11 29 C-10.34 29 -9.68 29 -9 29 C-5.61716634 26.04787195 -3.29559337 23.09791825 -2.125 18.75 C-1.96100035 13.83001044 -1.9198954 8.92198248 -2 4 C-6.70412416 4 -7.89768978 4.96987894 -11.625 7.6875 Z M-8.5625 31.375 C-11.22681703 33.64723409 -11.22681703 33.64723409 -11 36 C-11.66 36 -12.32 36 -13 36 C-15.39820305 38.63684747 -15.39820305 38.63684747 -16 42 C-11.35413108 41.51515724 -11.35413108 41.51515724 -7 40 C-7 40.99 -7 41.98 -7 43 C-7.825 43.103125 -8.65 43.20625 -9.5 43.3125 C-13.59289012 44.11646056 -17.12540225 45.46352158 -21 47 C-19.74838228 50.75485316 -18.54425403 51.16894128 -15.1875 53.125 C-14.31480469 53.64320312 -13.44210938 54.16140625 -12.54296875 54.6953125 C-10.31362373 55.8390932 -8.44546695 56.53256809 -6 57 C-5.33566818 47.65190221 -4.8401345 38.37877608 -5 29 C-6.46007099 28.88670589 -6.46007099 28.88670589 -8.5625 31.375 Z M-23 51 C-26.72582302 57.63214646 -26.72582302 57.63214646 -28 65 C-25.75278859 69.2420814 -25.75278859 69.2420814 -22 72 C-15.93646412 72.56709328 -11.27892008 72.33405479 -6 69 C-5.44832813 64.94391808 -5.44832813 64.94391808 -6 61 C-8.28400525 58.54088017 -11.00356181 57.08537357 -13.9375 55.5 C-14.69224609 55.05914062 -15.44699219 54.61828125 -16.22460938 54.1640625 C-19.42418555 52.00877213 -19.42418555 52.00877213 -23 51 Z M-4 62 C-4 63.98 -4 65.96 -4 68 C-3.01 67.34 -2.02 66.68 -1 66 C-1.66 64.68 -2.32 63.36 -3 62 C-3.33 62 -3.66 62 -4 62 Z " fill="#000000" transform="translate(34,0)"/>
</svg>
